<?xml version="1.0"?><svg width="640" height="480" xmlns="http://www.w3.org/2000/svg">
 <title>wave pattern</title>
 <metadata id="metadata18081">image/svg+xmlPublic Domainclker.comMohamed Ibrahimmap symbolsmap symbols</metadata>
 <g>
  <title>Layer 1</title>
  <path d="m250.196991,130.641006c-9.957977,15.216995 -23.391998,21.182999 -38.290985,21.182999c-18.914001,0 -36.130005,-12.174011 -46.012009,-35.183006c-9.804001,23.495995 -27.097,35.183006 -46.242996,35.183006c-18.912994,0 -35.973999,-12.417007 -45.856003,-35.427002c-9.804001,23.73999 -27.097,35.427002 -46.473999,35.427002c-13.973,0 -26.788498,-4.992004 -36.438896,-18.505005l-7.334,-82.7813c10.036499,20.938801 25.9394,34.451298 43.772896,34.451298c19.376999,0 36.669998,-14.973099 46.473999,-38.711597c9.882004,23.008099 26.943008,38.711597 45.856003,38.711597c19.145996,0 36.438995,-14.973099 46.242996,-38.468098c9.882004,23.008099 27.098007,38.468098 46.012009,38.468098c19.299988,0 36.360992,-15.703499 46.087982,-39.441898l-7.796997,85.093906z" id="path6712" fill-rule="nonzero" fill="#2948cc"/>
  <path id="svg_1" d="m435.229034,128.956024c-9.958496,15.216614 -23.39209,21.182281 -38.291504,21.182281c-18.914154,0 -36.129272,-12.173523 -46.011353,-35.182922c-9.804016,23.496338 -27.097137,35.182922 -46.242889,35.182922c-18.9133,0 -35.974854,-12.417023 -45.856079,-35.426422c-9.80484,23.739838 -27.097168,35.426422 -46.474426,35.426422c-13.973175,0 -26.788452,-4.991882 -36.438873,-18.504395l-7.333954,-82.78157c10.036469,20.938797 25.939301,34.451294 43.772827,34.451294c19.377258,0 36.669586,-14.973145 46.474426,-38.711578c9.881226,23.008072 26.94278,38.711578 45.856079,38.711578c19.145752,0 36.438873,-14.973145 46.242889,-38.468155c9.88208,23.008118 27.097198,38.468155 46.011353,38.468155c19.30011,0 36.361694,-15.703506 46.088501,-39.441925l-7.796997,85.094315z" fill-rule="nonzero" fill="#2948cc"/>
  </g>
</svg>
